# xmcd CD database file
#
# Track frame offsets:
#	150
#	16025
#	26811
#	39220
#	50630
#	61796
#	72011
#	89906
#	102977
#	114421
#	123145
#
# Disc length: 1804 seconds
#
# Revision: 0
# Processed by: cddbd v1.5.1PL0 Copyright (c) Steve Scherf et al.
# Submitted via: CDex 1.51
#
DISCID=88070a0b
DTITLE=The Haygoods - A Capella, Fiddlin' and Gospel
DYEAR=2005
DGENRE=Country
TTITLE0=Celebrate/Orange Blossom
TTITLE1=New Country
TTITLE2=Irish Fiddle Medley
TTITLE3=Leyenda/Fiddle Faddle
TTITLE4=Happy in Jesus
TTITLE5=He's still workin on me
TTITLE6=In Christ Alone
TTITLE7=Just a little talk
TTITLE8=Walk in Jerusalem
TTITLE9=Lord's Prayer
TTITLE10=Prayer of St. Francis
EXTD=YEAR: 2005
EXTT0=
EXTT1=
EXTT2=
EXTT3=
EXTT4=
EXTT5=
EXTT6=
EXTT7=
EXTT8=
EXTT9=
EXTT10=
PLAYORDER=
